<?xml version="1.0" encoding="UTF-8" standalone="no"?>
<!-- Created with Inkscape (http://www.inkscape.org/) -->

<svg
   xmlns:dc="http://purl.org/dc/elements/1.1/"
   xmlns:cc="http://creativecommons.org/ns#"
   xmlns:rdf="http://www.w3.org/1999/02/22-rdf-syntax-ns#"
   xmlns:svg="http://www.w3.org/2000/svg"
   xmlns="http://www.w3.org/2000/svg"
   xmlns:sodipodi="http://sodipodi.sourceforge.net/DTD/sodipodi-0.dtd"
   xmlns:inkscape="http://www.inkscape.org/namespaces/inkscape"
   width="477.38373mm"
   height="300.64017mm"
   viewBox="0 0 477.38373 300.64017"
   version="1.1"
   id="svg1527"
   inkscape:version="0.92.2 5c3e80d, 2017-08-06"
   sodipodi:docname="ink.svg">
  <defs
     id="defs1521">
    <style
       id="style2566"
       type="text/css"><![CDATA[
    .str0 {stroke:black;stroke-width:10.4986;stroke-linecap:round}
    .str1 {stroke:black;stroke-width:6.29913;stroke-linecap:round;stroke-linejoin:round}
    .fil1 {fill:none}
    .fil0 {fill:black}
    .fil2 {fill:black}
   ]]></style>
  </defs>
  <sodipodi:namedview
     id="base"
     pagecolor="#ffffff"
     bordercolor="#666666"
     borderopacity="1.0"
     inkscape:pageopacity="0.0"
     inkscape:pageshadow="2"
     inkscape:zoom="0.10172937"
     inkscape:cx="659.50089"
     inkscape:cy="-1287.9951"
     inkscape:document-units="mm"
     inkscape:current-layer="layer1"
     showgrid="false"
     fit-margin-top="0"
     fit-margin-left="0"
     fit-margin-right="0"
     fit-margin-bottom="0"
     inkscape:window-width="1395"
     inkscape:window-height="855"
     inkscape:window-x="45"
     inkscape:window-y="1"
     inkscape:window-maximized="1"
     inkscape:snap-global="false" />
  <metadata
     id="metadata1524">
    <rdf:RDF>
      <cc:Work
         rdf:about="">
        <dc:format>image/svg+xml</dc:format>
        <dc:type
           rdf:resource="http://purl.org/dc/dcmitype/StillImage" />
        <dc:title></dc:title>
      </cc:Work>
    </rdf:RDF>
  </metadata>
  <g
     inkscape:label="Layer 1"
     inkscape:groupmode="layer"
     id="layer1"
     transform="translate(149.41853,483.10108)">
    <path
       style="fill:#000000;stroke-width:0.26458332"
       d="m 242.68397,-183.11039 c -0.3016,-0.3834 -0.54493,-1.00848 -0.54073,-1.38906 0.007,-0.63923 0.98746,-3.61182 3.63149,-11.01066 0.57203,-1.60073 1.51651,-3.68591 2.09886,-4.63373 1.26034,-2.05134 1.49019,-2.70983 2.21507,-6.34648 0.30456,-1.52797 0.89471,-3.61156 1.31143,-4.63021 0.88098,-2.15344 1.28069,-3.5974 1.35493,-4.89479 0.034,-0.59412 0.31692,-1.21054 0.78931,-1.71979 0.97893,-1.05533 2.52838,-4.45758 2.97513,-6.53281 0.19767,-0.9181 0.78232,-2.6813 1.29929,-3.91823 0.51694,-1.23693 1.1385,-3.02286 1.38123,-3.96875 0.24275,-0.94588 1.15874,-3.43706 2.03554,-5.53595 0.87678,-2.09889 1.83193,-4.83732 2.12254,-6.08542 1.04029,-4.46785 2.3281,-8.02591 3.80466,-10.51178 1.4128,-2.37859 3.52404,-6.87027 4.20931,-8.95538 0.19129,-0.58208 0.67723,-1.76911 1.07984,-2.63784 0.40259,-0.86873 1.35687,-3.30951 2.12056,-5.42396 0.76369,-2.11445 1.99665,-5.33273 2.73992,-7.15174 2.74158,-6.70958 3.17669,-7.92437 3.98446,-11.12393 l 0.8249,-3.26737 -1.0092,-0.87903 c -0.55507,-0.48347 -1.48545,-1.13203 -2.06754,-1.44125 -1.35929,-0.7221 -4.23315,-2.6454 -8.06979,-5.40066 -3.0004,-2.15472 -4.08101,-2.71992 -6.27486,-3.28207 -0.95054,-0.24356 -1.33712,-0.58031 -2.61432,-2.27732 -0.82436,-1.09531 -2.21898,-2.60986 -3.09914,-3.36566 -2.41787,-2.07623 -7.86741,-7.31797 -11.50544,-11.06669 -1.78408,-1.83839 -3.71726,-3.67065 -4.29596,-4.07168 -1.40512,-0.97375 -2.02303,-2.04562 -3.03194,-5.25941 -0.7326,-2.33359 -1.16384,-3.15125 -3.20256,-6.07222 -1.2958,-1.85652 -2.84155,-4.23226 -3.43501,-5.27941 -0.59349,-1.04716 -1.51622,-2.54097 -2.05052,-3.31957 -1.22838,-1.78998 -1.35163,-3.53673 -0.33314,-4.72116 0.61595,-0.71633 0.72631,-0.74236 3.14651,-0.74236 3.02992,0 3.16896,0.0937 4.66727,3.14533 0.5796,1.18048 1.53784,2.74165 2.12942,3.46925 2.58924,3.18455 4.35039,5.6417 4.83584,6.74688 0.65826,1.49866 5.17692,7.59789 6.54389,8.83284 0.56422,0.50974 1.36038,1.1015 1.76927,1.31503 1.09852,0.57367 2.09068,1.75291 2.46877,2.93427 0.48604,1.51879 2.46491,3.49166 4.56108,4.54727 1.62835,0.82002 1.8533,1.03449 2.41345,2.30111 0.76028,1.71914 2.0829,3.26323 3.19222,3.72673 0.45937,0.19193 2.02922,1.40671 3.48861,2.6995 3.62699,3.213 4.81872,4.16416 7.47218,5.96379 1.25539,0.85142 2.87782,2.02527 3.60542,2.60855 1.70503,1.36682 2.96778,1.73237 4.20235,1.21652 0.50295,-0.21014 1.04103,-0.61863 1.19579,-0.90777 0.53573,-1.00101 3.78222,-9.18334 4.28707,-10.80492 0.27884,-0.89569 1.32416,-3.5746 2.32288,-5.95312 0.99875,-2.37853 1.89939,-4.90144 2.00149,-5.60648 0.10454,-0.72208 0.74166,-2.3397 1.45892,-3.70416 0.70032,-1.33226 1.53828,-3.31526 1.86213,-4.40666 0.32388,-1.09141 0.85596,-2.52016 1.1824,-3.175 0.32647,-0.65485 0.67516,-1.54782 0.77489,-1.98438 0.0997,-0.43656 0.70704,-1.92484 1.34961,-3.30729 1.49013,-3.20599 2.2874,-5.33635 3.14791,-8.41123 1.38506,-4.94941 5.92341,-15.9592 8.13416,-19.73312 0.69284,-1.18275 2.24782,-3.93121 3.45548,-6.10769 2.31032,-4.1637 4.25636,-6.5741 5.57094,-6.90025 1.85444,-0.4601 3.96433,0.66082 4.93718,2.62297 0.53004,1.06904 0.64203,1.70277 0.65466,3.70378 0.013,2.04301 -0.0808,2.59708 -0.6095,3.6047 -0.83902,1.59905 -1.96434,3.22745 -3.63559,5.26095 -0.76348,0.92899 -1.46436,2.03598 -1.55749,2.45999 -0.0931,0.42401 -1.30977,2.6405 -2.70362,4.92552 -2.93439,4.81044 -4.54501,7.71224 -4.55491,8.20644 -0.004,0.19122 -0.30221,0.99317 -0.66307,1.78211 -0.36087,0.78893 -0.96221,2.53747 -1.33633,3.88565 -1.2278,4.42449 -3.15709,10.05125 -3.6775,10.72542 -0.84328,1.09241 -1.73955,4.02677 -1.91754,6.27789 -0.15983,2.02147 -0.21823,2.17352 -1.29799,3.38087 -0.62183,0.69531 -1.33652,1.8264 -1.58816,2.51354 -0.25168,0.68713 -1.08064,2.73762 -1.84216,4.55663 -0.76153,1.81901 -1.68437,4.14073 -2.05076,5.15937 -0.36643,1.01865 -1.04611,2.68552 -1.51046,3.70417 -0.46434,1.01864 -1.47547,3.45943 -2.24697,5.42396 -0.7715,1.96453 -1.71101,4.22671 -2.08783,5.02708 -0.97414,2.06914 -0.90966,2.75218 0.36806,3.89922 1.49823,1.34499 1.42098,1.91654 -0.63105,4.66894 -0.92914,1.24629 -1.77052,2.58924 -1.86966,2.98434 -0.0992,0.39509 -0.4206,1.05582 -0.71432,1.4683 -0.29371,0.41247 -1.4043,2.56286 -2.46798,4.77864 -1.0637,2.21577 -2.35601,4.64028 -2.87179,5.3878 -0.51577,0.74751 -1.2991,2.15602 -1.74074,3.13002 -0.44162,0.974 -1.21944,2.33825 -1.72845,3.03167 -1.02473,1.39596 -2.84718,5.63078 -3.48136,8.08961 -0.40669,1.57682 -1.04047,3.18507 -2.55455,6.48228 -0.73681,1.60455 -1.72929,4.14576 -2.84168,7.27604 -0.25855,0.72761 -1.12646,2.75167 -1.9287,4.49792 -0.80225,1.74625 -1.65952,3.88937 -1.90508,4.7625 -0.24556,0.87312 -0.84207,2.83766 -1.32557,4.36562 -0.48349,1.52797 -1.24081,4.47593 -1.6829,6.55101 -0.4421,2.07509 -1.09969,4.45634 -1.4613,5.29167 -0.36163,0.83533 -0.73723,2.34827 -0.83465,3.36208 l -0.17711,1.8433 -1.75874,1.73897 c -1.52236,1.50524 -1.85979,2.02203 -2.51061,3.84525 -0.41354,1.15845 -0.84875,2.35503 -0.96716,2.65906 -0.1184,0.30403 -1.13651,1.63134 -2.2625,2.94957 -1.80419,2.11225 -2.3441,3.02033 -4.54798,7.64929 -1.37543,2.88888 -3.16076,6.73942 -3.96745,8.55673 -1.88349,4.24328 -2.4506,5.11654 -3.85839,5.94159 -1.43695,0.84209 -1.60078,0.84058 -2.27857,-0.0212 z m -292.655674,-23.71066 c -1.10366,-0.74718 -2.10936,-2.61855 -2.10936,-3.92501 0,-0.7625 0.16425,-1.12673 0.69714,-1.54588 0.38343,-0.3016 0.86559,-0.54838 1.07148,-0.54838 1.01243,0 3.76405,-1.98297 4.57176,-3.29467 1.04609,-1.69881 2.274771,-7.92296 3.319111,-16.81366 0.36751,-3.1287 1.31506,-10.03432 2.10567,-15.34583 0.79061,-5.31151 1.74795,-12.33619 2.12741,-15.61041 0.37946,-3.27422 0.8554,-6.72703 1.05763,-7.67291 1.384691,-6.47649 2.193511,-12.13259 2.429651,-16.99065 l 0.16355,-3.36461 -0.76805,-0.30069 c -0.985441,-0.38578 -4.828171,-0.16159 -6.743991,0.39346 -0.78782,0.22825 -2.325371,0.57959 -3.416771,0.78077 -1.09141,0.20118 -2.63922,0.6082 -3.43959,0.9045 -1.71917,0.63644 -6.19078,1.2182 -7.49004,0.97446 -0.96923,-0.18183 -1.50579,-0.93031 -1.50579,-2.10053 0,-1.1399 4.41085,-4.39596 7.56149,-5.58186 2.34026,-0.88087 8.951581,-2.58244 12.811431,-3.2973 3.380751,-0.62613 4.608431,-1.09895 5.200781,-2.003 0.51663,-0.78847 0.98066,-2.63222 1.69149,-6.7208 0.31624,-1.81901 0.74032,-3.70879 0.9424,-4.1995 0.25769,-0.62578 0.36741,-2.08128 0.36741,-4.87403 0,-3.67081 0.0537,-4.11614 0.6879,-5.70131 0.37834,-0.94571 0.96053,-3.21724 1.29375,-5.04784 0.33323,-1.8306 0.73287,-3.80461 0.88811,-4.3867 0.15524,-0.58208 0.52842,-2.99194 0.82928,-5.35524 0.30086,-2.3633 0.66605,-4.92314 0.81155,-5.68854 0.14549,-0.7654 0.67463,-4.72538 1.17587,-8.79997 1.08724,-8.83833 1.75053,-13.42321 2.63374,-18.20523 0.36108,-1.95502 0.79007,-4.67128 0.95332,-6.03614 0.16325,-1.36485 0.76539,-4.8628 1.33809,-7.77322 1.02263,-5.19689 3.437909,-21.12071 3.952689,-26.05977 0.14398,-1.38153 0.68072,-4.35809 1.19275,-6.61458 0.51203,-2.2565 1.05252,-5.35288 1.2011,-6.88085 0.24483,-2.51793 0.39159,-3.02593 1.56692,-5.42396 0.71323,-1.45521 1.5798583,-3.30068 1.9258383,-4.10104 0.83536,-1.93247 3.05594,-4.33742 4.52177,-4.89723 1.052,-0.40176 1.21907,-0.40238 2.16306,-0.008 2.36761004,0.98925 2.75699004,1.85659 3.10314004,6.9122 l 0.27546996,4.0233 -1.66173996,2.06567 c -2.26554004,2.81623 -2.80980004,3.73351 -3.46428004,5.83866 -0.30916,0.99443 -0.96179,3.05821 -1.45029,4.58618 -0.48849,1.52797 -1.12939,4.02828 -1.42421,5.55625 -0.95406,4.94456 -2.11234,12.24881 -2.28664,14.41979 -0.236598,2.94707 -2.0929283,13.98002 -2.9158583,17.3302 -0.39773,1.61916 -0.77902,4.18714 -0.91398,6.15563 -0.12735,1.85762 -0.29771,3.48453 -0.37856,3.61535 -0.0808,0.13082 -0.45351,2.24235 -0.82813,4.69229 -0.37462,2.44995 -0.91019,5.44352 -1.19016,6.65238 -0.55929,2.415 -1.057789,6.27501 -1.697949,13.1479 -0.51036,5.47935 -1.57446,12.9734 -2.12264,14.94896 -0.22209,0.80037 -0.51971,2.80858 -0.66137,4.46269 -0.14168,1.65412 -0.61018,4.51162 -1.04112,6.35 -0.90652,3.86712 -1.42243,6.73962 -1.89579,10.55539 l -0.33681,2.71495 0.91249,0.78672 c 0.50186,0.43269 1.17519,0.85968 1.49629,0.94886 0.32109,0.0892 4.07156,-0.16169 8.334369,-0.5575 5.0460783,-0.46853 10.4742883,-0.78105 15.5562483,-0.89563 4.29312,-0.0968 7.9435297,-0.26119 8.1120297,-0.36532 0.16849,-0.10414 1.66092,-0.29975 3.3165,-0.43469 1.9049,-0.15526 3.52021,-0.44639 4.39932,-0.79291 1.55985,-0.61483 3.43868,-0.71501 4.06649,-0.21683 0.5465,0.43366 0.75107,1.68293 0.42755,2.61098 -0.39869,1.14367 -3.80192,3.61015 -5.8129,4.21287 -2.08551,0.62506 -4.91562,1.03786 -5.86767,0.85587 -1.08535,-0.20748 -8.8756897,0.42946 -12.47601966,1.02005 -1.74748004,0.28664 -5.37989004,0.63294 -8.07202004,0.76955 -6.8770983,0.34895 -9.6008973,0.79315 -12.4354173,2.02794 -2.93679,1.27935 -4.04646,3.03565 -4.90748,7.76722 -0.24996,1.37362 -0.78956,3.59304 -1.1991,4.93204 -0.92062,3.00992 -1.09071,3.96098 -2.09615,11.72067 -0.4431,3.41973 -0.9168,6.57489 -1.05267,7.01145 -0.13587,0.43657 -0.67199,4.18703 -1.19139,8.33437 -0.51939,4.14734 -1.19227,8.49312 -1.49527,9.65729 -0.79493,3.05414 -0.96571,4.42101 -1.27268,10.18646 -0.19285,3.62185 -0.59124,7.13056 -1.33687,11.77396 -0.584191,3.63802 -1.170971,7.3656 -1.303951,8.28352 -0.28645,1.97723 -1.57508,4.12887 -4.10187,6.8489 -1.51035,1.62586 -1.72634,1.76331 -3.070581,1.95402 -2.90955,0.41278 -4.86438,0.29467 -5.81888,-0.35155 z m -62.199736,-25.3544 c -2.33326,-0.1339 -3.96404,-0.36014 -4.63021,-0.64237 -0.5656,-0.23961 -1.74274,-0.55196 -2.61586,-0.6941 -2.55994,-0.41674 -6.14873,-1.65166 -9.08655,-3.12673 -3.63223,-1.82373 -9.25108,-5.54674 -10.93705,-7.24682 -2.29533,-2.31454 -4.71494,-5.26014 -4.71494,-5.73991 0,-0.25101 -0.18789,-0.61232 -0.41752,-0.8029 -1.79751,-1.4918 -4.541,-11.61721 -4.79852,-17.70994 -0.2115,-5.00369 0.31642,-11.66743 1.2367,-15.61042 0.97184,-4.16388 2.59676,-9.5894 3.64512,-12.17083 0.44323,-1.09141 1.45847,-3.59172 2.25608,-5.55625 0.79762,-1.96453 1.82258,-4.20219 2.27771,-4.97258 0.45513,-0.77039 0.82751,-1.47441 0.82751,-1.5645 0,-0.0901 0.63523,-1.24571 1.41163,-2.56804 1.76068,-2.99874 4.07765,-7.71511 4.27863,-8.70946 0.093,-0.46006 0.93833,-1.53339 2.19149,-2.78253 2.67225,-2.66366 5.88639,-6.26266 7.42385,-8.31275 3.15749,-4.21031 15.52511,-15.92308 21.84978,-20.69285 2.282707,-1.72152 9.597836,-6.00124 12.428256,-7.27116 0.94313,-0.42315 2.37876,-1.19411 3.19029,-1.71324 4.02943,-2.5776 10.81871,-4.20941 13.87123,-3.33396 0.80145,0.22986 2.43276,1.17832 5.41031,3.1456 1.63169,1.07806 5.0924,4.57644 5.66486,5.72651 0.76939,1.54571 0.91427,3.11083 0.59821,6.46238 -0.29083,3.08397 -0.78033,4.78314 -1.37744,4.78142 -0.52969,-0.002 -2.00018,-0.97205 -2.28209,-1.5062 -0.13852,-0.26245 -0.39882,-1.19137 -0.57846,-2.06426 -0.68191,-3.31356 -2.62227,-6.20211 -5.16863,-7.69438 -2.77959,-1.62895 -5.22808,-2.00843 -8.5076,-1.31856 -4.11895,0.86645 -10.77137,3.9574 -14.37615,6.67967 -1.08628,0.82035 -2.80849,2.08517 -3.82713,2.81072 -4.577856,3.26069 -10.942206,9.26381 -17.640426,16.63921 -2.71685,2.99152 -3.4147,3.86872 -5.32648,6.69542 -0.4921,0.7276 -1.95524,2.50044 -3.25141,3.93964 -3.61432,4.01315 -4.04585,4.60392 -5.33603,7.30515 -1.53482,3.2134 -3.3068,6.76342 -5.9209,11.862 -1.14397,2.23124 -2.07996,4.32941 -2.07996,4.66262 0,0.72168 -1.13238,4.40344 -2.64837,8.6108 -0.60299,1.67349 -1.32083,4.18447 -1.5952,5.57996 -0.6711,3.41345 -1.11129,9.15449 -0.90093,11.75024 0.27653,3.41224 1.56746,9.4022 2.37104,11.00171 2.08406,4.14825 6.35807,10.04174 8.15544,11.24565 1.95238,1.30773 7.68635,4.41074 10.65143,5.76416 l 3.20113,1.46116 4.50582,0.41105 c 6.27996,0.5729 8.14521,0.52978 11.7156,-0.27084 3.407836,-0.76417 4.419616,-1.157 7.020936,-2.72593 0.99407,-0.59955 1.99935,-1.09009 2.23396,-1.09009 0.92631,0 5.87158,-3.76255 9.44795,-7.18837 2.77768,-2.66073 3.79124,-3.23747 4.47966,-2.54905 0.52503,0.52503 0.22025,1.25374 -1.72273,4.11892 -0.86201,1.27116 -1.75726,2.75769 -1.98944,3.30339 -0.23217,0.54571 -0.6037,1.41918 -0.82561,1.94105 -0.22191,0.52187 -1.02558,1.61166 -1.78593,2.42175 -1.57449,1.67746 -6.11851,4.78861 -7.80163,5.34152 -0.62012,0.20372 -1.58616,0.763 -2.14676,1.24285 -0.88581,0.75822 -1.60781,1.01237 -5.514169,1.94103 -4.875927,1.15915 -5.411027,1.19258 -12.540497,0.78344 z M 12.572185,-249.4871 c -0.22982,-0.5989 0.13797,-2.20025 0.81656,-3.55527 0.33196,-0.66288 0.75276,-1.86008 0.93509,-2.66045 0.75147,-3.2985 2.11192,-5.96189 6.46448,-12.65574 1.1986,-1.84335 2.93089,-4.66122 3.84954,-6.26195 2.07949,-3.6235 3.17118,-5.16152 7.79196,-10.97762 2.02436,-2.54804 4.09724,-5.28764 4.60639,-6.08801 1.23133,-1.93561 5.33888,-7.60769 6.97275,-9.62863 1.62646,-2.01176 3.14634,-5.03215 3.32361,-6.60486 0.26116,-2.31701 -0.5941,-3.39368 -7.70177,-9.69567 -3.804,-3.37281 -4.13478,-3.80632 -4.13478,-5.41901 0,-1.0265 0.13751,-1.37379 0.81038,-2.04666 0.78595,-0.78594 0.86505,-0.80579 2.62375,-0.65835 0.99735,0.0836 2.57679,0.45744 3.50986,0.83073 0.93307,0.37329 1.92527,0.68132 2.2049,0.68451 1.51674,0.0173 4.28179,2.01885 5.15583,3.7321 1.13015,2.21528 3.28818,3.93622 4.93318,3.93402 1.37559,-0.002 2.35557,-0.88586 3.40826,-3.07449 0.74516,-1.54924 1.59261,-2.69158 3.49444,-4.7104 1.38089,-1.46584 3.27907,-3.84689 4.21818,-5.29122 0.93911,-1.44434 2.74857,-4.00419 4.02103,-5.68855 1.27245,-1.68436 3.017,-4.06023 3.87677,-5.27971 0.859766,-1.21947 2.261686,-3.00541 3.115366,-3.96875 0.85369,-0.96333 2.15072,-2.64448 2.88229,-3.73589 0.73158,-1.09141 2.18491,-3.05594 3.22963,-4.36562 1.04472,-1.30969 2.17978,-2.8575 2.52237,-3.43959 1.13635,-1.93078 4.85563,-6.52384 7.73908,-9.55725 1.56435,-1.6457 2.84427,-3.16293 2.84427,-3.37161 0,-0.20869 0.41017,-1.01647 0.91148,-1.79508 2.79088,-4.33457 3.859629,-5.45299 4.896399,-5.12393 0.70664,0.22428 0.70998,1.24752 0.013,3.97286 -0.29104,1.13797 -0.52916,2.56415 -0.52916,3.1693 0,1.92279 -0.71816,3.768 -1.932809,4.96608 -1.3541,1.33564 -2.85282,3.34351 -3.75589,5.03186 -0.37096,0.69353 -1.30199,2.00322 -2.06895,2.91041 -1.93121,2.2843 -3.39398,4.30046 -4.36408,6.01507 -0.45283,0.80037 -1.89929,2.79876 -3.21435,4.44088 -1.31506,1.64212 -2.39102,3.05515 -2.39102,3.14007 0,0.0849 -0.37156,0.57758 -0.82568,1.09481 -0.45413,0.51722 -0.96207,1.24731 -1.12875,1.62243 -0.34288,0.77166 -1.63936,2.63919 -3.20494,4.61662 -2.82759,3.57141 -5.980166,8.32727 -6.359446,9.5936 -0.29986,1.00115 -0.8783,1.87488 -2.20415,3.32935 -2.53968,2.78605 -4.89287,6.40009 -5.98187,9.18698 -1.55349,3.97556 -1.3452,4.61921 2.71096,8.37724 1.55525,1.44094 4.65949,4.40583 6.89831,6.58864 2.238816,2.18282 5.088056,4.74266 6.331656,5.68855 2.33293,1.77444 4.0285,3.83548 4.0285,4.89681 0,0.33314 0.3724,1.3024 0.82755,2.15392 1.39503,2.60988 1.04403,4.51134 -1.06024,5.74362 -1.17884,0.69034 -2.53576,0.39478 -3.65992,-0.79717 -0.47844,-0.5073 -0.86989,-1.19113 -0.86989,-1.51962 0,-1.45267 -2.64065,-4.17744 -10.451036,-10.78396 -1.30969,-1.10782 -4.14586,-3.63552 -6.30259,-5.61712 -2.15673,-1.9816 -4.13594,-3.71777 -4.39824,-3.85815 -0.2623,-0.14038 -1.04267,-0.38202 -1.73415,-0.53698 l -1.25723,-0.28176 -1.48827,1.64018 c -2.44568,2.6953 -3.9201,4.62986 -4.11232,5.39573 -0.28149,1.12153 -1.81961,3.36488 -3.94492,5.75367 -1.06658,1.19879 -2.57414,3.07188 -3.35014,4.16241 -0.776,1.09054 -2.31447,3.03945 -3.41882,4.33093 -2.97946,3.4843 -3.74356,4.52986 -5.43826,7.44144 -1.75426,3.01392 -6.35052,9.86053 -8.64848,12.88282 -0.85097,1.1192 -1.54721,2.13332 -1.54721,2.25361 0,0.51225 -3.98703,4.4262 -5.67807,5.57399 -1.07777,0.73154 -2.3201,1.88099 -2.99526,2.77134 -1.19649,1.57784 -1.55522,1.79968 -1.81509,1.12249 z m 166.061135,-19.35715 c -0.89098,-0.82489 -1.85354,-1.95764 -2.13902,-2.51723 -1.52466,-2.98862 -3.64622,-14.85949 -4.60177,-25.74862 -0.92035,-10.48776 -1.7631,-17.19173 -2.28983,-18.21496 -0.44516,-0.86479 -1.3334,-1.76108 -1.74527,-1.76108 -0.20196,0 -0.92536,-0.18127 -1.60753,-0.40284 -1.10363,-0.35843 -1.73609,-0.36043 -5.73826,-0.0181 l -4.49792,0.38474 -2.64583,-1.26149 c -2.75526,-1.31367 -6.35849,-3.84189 -7.77539,-5.45566 -0.64471,-0.73427 -0.82301,-1.18021 -0.82097,-2.05326 0.004,-1.89879 1.00824,-3.51823 3.94917,-6.37084 1.47978,-1.43535 3.14822,-3.22129 3.70763,-3.96875 1.29603,-1.7317 3.2866,-3.61915 4.64373,-4.40315 3.2232,-1.86203 7.11004,-4.69448 8.82562,-6.43147 l 1.94644,-1.97074 -0.29874,-7.63828 c -0.16431,-4.20106 -0.47001,-9.12658 -0.67935,-10.94559 -0.62447,-5.42597 -0.9856,-16.0151 -1.00613,-29.50104 -0.019,-12.47719 -0.007,-12.78587 0.69728,-17.59479 1.25326,-8.56025 1.5444,-10.64895 1.88868,-13.54939 0.2871,-2.41878 0.45799,-3.0174 1.16694,-4.08771 0.45683,-0.68967 1.19582,-2.43751 1.64222,-3.88409 1.87582,-6.07871 4.48006,-11.24403 9.62594,-19.09235 1.04952,-1.60073 2.2257,-3.45982 2.61369,-4.13131 0.38798,-0.6715 1.38818,-2.04193 2.22268,-3.04542 0.83447,-1.00349 2.01994,-2.48487 2.63438,-3.29196 1.41401,-1.85739 4.12607,-4.27909 8.01632,-7.15807 3.34303,-2.47402 5.04637,-3.52358 6.12169,-3.77208 0.38669,-0.0894 2.54479,-1.04963 4.79576,-2.13393 4.27368,-2.05866 6.07441,-2.62508 11.56678,-3.63834 5.50538,-1.01565 11.56222,-0.73576 17.50701,0.80902 2.54439,0.66116 3.09512,0.92165 5.58699,2.64249 4.50263,3.10942 5.80798,4.4366 7.16696,7.28684 0.64285,1.3483 1.37104,3.15647 1.61816,4.01815 0.24712,0.86168 0.93168,3.1145 1.52122,5.00627 0.58955,1.89177 1.2908,4.27302 1.55835,5.29167 0.58515,2.22798 0.64023,5.35911 0.11633,6.61296 -0.20852,0.49908 -0.45548,1.47753 -0.5488,2.17432 -0.15298,1.14234 -1.35286,6.07024 -2.40223,9.86584 -0.71765,2.5958 -0.87482,3.28666 -1.03981,4.5707 -0.12451,0.96899 -0.47231,1.66782 -1.49243,2.99879 -0.73158,0.95447 -1.62013,2.39116 -1.97459,3.19265 -0.35444,0.80149 -1.07577,2.13094 -1.6029,2.95433 -1.12263,1.7535 -2.73092,4.8928 -2.73092,5.33057 0,0.62158 -1.63013,2.63562 -5.02489,6.2083 -1.91947,2.02009 -4.12178,4.45662 -4.89397,5.41451 -0.77221,0.95788 -1.85523,2.15833 -2.40673,2.66765 -0.55147,0.50933 -1.69952,1.87855 -2.55122,3.04271 -1.70495,2.33051 -5.42877,6.37439 -12.91304,14.02292 -2.7055,2.76489 -5.6229,5.90628 -6.48311,6.98086 -0.86019,1.07457 -2.86369,3.15816 -4.45223,4.6302 -1.58853,1.47204 -5.52076,5.22609 -8.73828,8.34233 -3.21755,3.11624 -8.41862,8.01512 -11.55793,10.88638 -3.13933,2.87126 -6.02202,5.59382 -6.40598,6.05013 -0.84657,1.00609 -1.15705,2.04495 -1.56986,5.25272 -0.28273,2.19707 -0.23982,3.21742 0.40844,9.70813 0.39844,3.98917 0.85259,7.62071 1.00925,8.07011 0.15666,0.44941 0.6232,0.99207 1.03677,1.20593 0.97145,0.50236 3.47687,0.49689 6.33445,-0.0138 2.96685,-0.53025 12.77855,-0.80894 15.21354,-0.43212 6.49287,1.00478 11.2446,1.88379 12.08339,2.23526 1.16763,0.48926 1.59337,1.19027 1.37771,2.26852 -0.26594,1.32962 -0.90991,1.68238 -3.47245,1.90217 -1.27365,0.10925 -3.3873,0.34464 -4.69699,0.52311 -1.55815,0.21232 -3.75308,0.2661 -6.35,0.15558 -3.70829,-0.15783 -8.64997,0.0491 -14.31075,0.59939 -2.57935,0.25071 -3.98913,0.88083 -5.08355,2.27214 -1.05368,1.33954 -1.39459,5.10522 -0.84513,9.33542 0.13716,1.05619 0.49207,4.80665 0.78864,8.33438 1.20436,14.3259 1.85222,18.62797 3.43628,22.8182 2.06579,5.46447 2.16241,6.34362 0.88201,8.02617 -0.60957,0.80104 -2.05708,1.89225 -2.51335,1.89471 -0.10086,5.3e-4 -0.91234,-0.67391 -1.8033,-1.49879 z m -13.83408,-56.69762 c 4.12642,-0.47449 4.4676,-1.01788 4.23262,-6.74158 -0.15843,-3.85899 -0.61481,-6.24714 -1.3307,-6.96302 -0.27961,-0.27961 -0.83256,-0.40053 -1.68611,-0.36871 -1.82356,0.068 -1.99215,0.16331 -2.72057,1.53844 -0.84609,1.59731 -1.14126,1.95255 -4.70107,5.65766 -3.26549,3.3988 -3.52441,3.98178 -2.40204,5.40863 1.28211,1.62995 3.66664,2.03677 8.60787,1.46858 z m 12.25682,-31.52195 c 0.84551,-0.45064 3.09788,-2.20681 5.00531,-3.9026 1.90743,-1.69579 4.20889,-3.72569 5.11437,-4.51087 2.64649,-2.29491 4.63391,-4.24018 8.48619,-8.30619 1.98967,-2.10007 4.73652,-4.79599 6.10413,-5.99092 1.36757,-1.19493 3.6581,-3.55656 5.09,-5.24807 1.43192,-1.6915 3.4667,-4.04911 4.52173,-5.23913 1.05502,-1.19002 1.91822,-2.25626 1.91822,-2.36943 0,-0.11316 1.16576,-1.58678 2.59059,-3.2747 1.42484,-1.68792 2.87753,-3.48567 3.22824,-3.99499 0.35073,-0.50933 1.61893,-2.01964 2.81826,-3.35627 2.48047,-2.76443 3.27948,-3.92164 3.93274,-5.69581 0.25249,-0.68578 1.16941,-2.055 2.03756,-3.04271 0.86815,-0.98771 1.92487,-2.55027 2.34828,-3.47236 0.44889,-0.97762 1.52548,-2.5218 2.58252,-3.70417 3.18291,-3.56028 5.44891,-7.42818 5.87094,-10.02119 0.24003,-1.47487 0.68477,-2.3333 2.75262,-5.31311 0.85167,-1.22727 1.50852,-2.7257 2.49862,-5.69975 2.10368,-6.31911 2.28259,-7.39874 2.26531,-13.66963 -0.0175,-6.34948 -0.2817,-7.78589 -2.14119,-11.64167 -1.11602,-2.31408 -1.47214,-2.7672 -4.48779,-5.70997 l -3.27559,-3.19642 -4.48056,-0.6159 c -4.196,-0.57678 -4.72953,-0.59535 -8.40169,-0.2924 -8.09127,0.66753 -12.57651,2.04396 -18.1683,5.5755 -0.96432,0.60903 -2.35013,1.32547 -3.07959,1.59209 -1.81914,0.66492 -4.16197,2.59634 -7.9625,6.5643 -5.12353,5.34918 -7.00911,7.95029 -10.36323,14.29582 -0.89715,1.69727 -2.19252,4.01301 -2.87859,5.1461 -2.04059,3.37021 -2.92205,5.77664 -3.07165,8.38583 -0.11554,2.01505 -0.22426,2.39454 -1.02552,3.57961 -1.04265,1.54212 -1.28162,2.27634 -1.85047,5.68586 -0.23067,1.38245 -0.75846,3.94229 -1.17285,5.68854 -0.61142,2.57642 -0.83105,4.4336 -1.16501,9.85088 -0.46183,7.49117 -0.53954,23.7939 -0.14034,29.43974 0.13891,1.96453 0.49001,7.56047 0.78023,12.43542 0.29022,4.87495 0.59285,9.24183 0.67252,9.70419 0.2376,1.37881 0.92991,1.45252 3.04649,0.32438 z m -53.44464,87.52728 c -1.63319,-0.57263 -1.94156,-1.39121 -2.7727,-7.36072 -0.69702,-5.00601 -0.73843,-5.76921 -0.5729,-10.55554 0.0981,-2.83766 0.28993,-5.93329 0.42621,-6.87917 0.13629,-0.94589 0.31332,-4.27964 0.39339,-7.40833 0.08,-3.1287 0.27911,-8.27566 0.44233,-11.43768 0.26985,-5.22794 0.25342,-5.96259 -0.18122,-8.10361 -0.45429,-2.23784 -0.4555,-2.43455 -0.0243,-3.97114 0.30261,-1.07842 0.54023,-3.4456 0.71377,-7.10994 0.14309,-3.02129 0.37772,-5.93105 0.52136,-6.46613 0.31091,-1.15792 1.60573,-2.33442 2.56924,-2.33442 0.37946,0 1.20544,0.24956 1.83552,0.55458 2.21996,1.07466 2.96995,3.49046 2.99021,9.63188 0.006,1.74625 0.13087,4.00811 0.27803,5.02637 0.18171,1.2575 0.1801,2.44568 -0.005,3.70416 -0.14989,1.01904 -0.45238,5.60327 -0.67223,10.18718 -0.21981,4.5839 -0.51697,10.00125 -0.66034,12.03854 -0.36407,5.17345 -0.79254,17.85275 -0.79254,23.45283 0,2.57996 -0.11038,4.98118 -0.24529,5.33603 -0.26623,0.70024 -1.60833,1.6434 -2.66512,1.87292 -0.36381,0.079 -1.07405,-0.001 -1.57835,-0.17781 z"
       id="path1540"
       inkscape:connector-curvature="0" />
  </g>
</svg>
